<?xml version="1.0" standalone="no"?>
<!DOCTYPE svg PUBLIC "-//W3C//DTD SVG 20010904//EN"
 "http://www.w3.org/TR/2001/REC-SVG-20010904/DTD/svg10.dtd">
<svg version="1.0" xmlns="http://www.w3.org/2000/svg"
 width="900.000000pt" height="1173.000000pt" viewBox="0 0 900.000000 1173.000000"
 preserveAspectRatio="xMidYMid meet">
<metadata>
Created by potrace 1.10, written by Peter Selinger 2001-2011
</metadata>
<g transform="translate(0.000000,1173.000000) scale(0.100000,-0.100000)"
fill="#000000" stroke="none">
<path d="M3670 10619 c-308 -19 -623 -105 -805 -219 -22 -14 -45 -27 -52 -30
-38 -16 -183 -144 -232 -204 -126 -156 -194 -316 -230 -537 -19 -117 -10 -331
21 -519 6 -36 14 -99 18 -140 4 -41 13 -106 19 -145 21 -139 34 -270 34 -349
0 -84 1 -79 -75 -243 -11 -23 -30 -58 -44 -78 -13 -20 -31 -57 -39 -84 -15
-44 -15 -52 4 -124 11 -42 24 -84 29 -94 14 -29 40 -170 52 -283 20 -200 9
-359 -31 -431 -10 -18 -13 -82 -13 -264 0 -256 4 -281 64 -450 12 -33 25 -73
30 -90 4 -16 14 -46 21 -65 6 -19 17 -51 24 -70 7 -19 18 -51 24 -70 7 -19 17
-48 21 -65 5 -16 25 -75 45 -130 20 -55 40 -113 45 -130 4 -16 13 -43 19 -60
5 -16 16 -57 24 -90 8 -33 21 -82 27 -110 7 -27 16 -68 20 -90 4 -22 12 -53
19 -68 6 -16 11 -37 11 -48 0 -32 58 -141 97 -181 64 -66 194 -120 318 -133
39 -4 76 -12 83 -17 18 -15 15 -38 -5 -38 -23 0 -216 -44 -328 -75 -27 -8 -59
-16 -70 -19 -11 -2 -45 -14 -75 -26 -30 -12 -64 -24 -75 -27 -41 -12 -141
-100 -370 -325 -153 -150 -237 -240 -241 -257 -3 -14 -10 -48 -16 -76 -20
-102 -43 -171 -71 -220 -48 -82 -164 -293 -173 -315 -3 -8 -20 -44 -37 -80
-16 -36 -36 -80 -44 -97 -7 -18 -20 -47 -27 -65 -14 -31 -28 -71 -56 -148 -6
-19 -15 -51 -20 -70 -4 -19 -13 -48 -19 -63 -6 -16 -11 -45 -11 -67 0 -36 -20
-115 -42 -170 -6 -14 -14 -38 -18 -55 -5 -16 -18 -55 -30 -85 -12 -30 -26 -68
-31 -84 -5 -16 -49 -111 -98 -210 -133 -271 -182 -381 -246 -556 -7 -19 -21
-71 -31 -115 -10 -44 -35 -111 -56 -150 -155 -292 -170 -381 -91 -545 78 -162
78 -163 78 -300 0 -134 -3 -142 -65 -230 -47 -65 -120 -207 -120 -233 0 -6 -7
-30 -15 -52 -14 -40 -20 -190 -9 -232 l6 -23 4094 0 4094 0 0 1815 c0 1137 -4
1815 -9 1815 -6 0 -38 24 -73 52 -34 29 -88 73 -119 98 -111 87 -215 170 -294
235 -82 66 -214 160 -250 176 -11 5 -36 19 -55 30 -19 12 -55 32 -80 46 -25
13 -61 34 -80 45 -19 11 -55 31 -80 45 -25 13 -58 32 -75 42 -16 10 -61 35
-100 56 -38 21 -88 49 -110 61 -56 31 -164 83 -310 149 -130 58 -140 65 -159
100 -44 82 -141 160 -277 223 -59 28 -70 37 -89 79 -168 357 -224 442 -369
557 -89 71 -94 75 -186 119 -112 55 -210 84 -385 114 -71 12 -112 25 -128 38
l-24 21 16 149 c9 83 16 173 16 202 0 52 11 72 88 153 142 150 344 409 392
505 6 11 19 34 30 50 28 44 150 291 150 303 0 6 6 26 14 44 30 73 38 108 51
213 16 131 22 158 70 340 64 241 105 544 105 775 0 299 -46 519 -157 745 -107
218 -223 346 -443 492 -221 147 -224 148 -240 156 -8 4 -28 16 -45 27 -16 11
-39 24 -50 30 -11 6 -33 19 -50 29 -97 62 -386 203 -522 255 -157 60 -185 69
-253 89 -309 91 -533 129 -850 147 -201 11 -215 11 -400 -1z"/>
</g>
</svg>
